# xmcd
#
# Track frame offsets: 
#        150
#        16750
#        37905
#        61497
#        78795
#        101560
#        124512
#        141112
#        155152
#        173035
#        191520
#        210550
#        224782
#
# Disc length: 3554 seconds
#
# Revision: 0
# Processed by: cddbd v1.4PL0 Copyright (c) Steve Scherf et al.
# Submitted via: ExactAudioCopy v0.90b2
#
DISCID=ae0de00d
DTITLE=Keith Sykes - Advanced Medication For The Blues
DYEAR=1998
DGENRE=Blues
TTITLE0=Advanced Medication For The Blues
TTITLE1=I Know An Angel
TTITLE2=Flyin Low
TTITLE3=The Whole 9 Yards
TTITLE4=One World
TTITLE5=Give Me All Your Love
TTITLE6=Baby Please (All The Shrimp In New Orleans)
TTITLE7=Hard Enough
TTITLE8=One Up One Down
TTITLE9=Those Were The Days
TTITLE10=Better Than A Husband
TTITLE11=I Want You I Need You I Love You
TTITLE12=The Fireplace
EXTD=Syren Records\nsubmitted by spanishjohnny
EXTT0=
EXTT1=
EXTT2=
EXTT3=
EXTT4=
EXTT5=
EXTT6=
EXTT7=
EXTT8=
EXTT9=
EXTT10=
EXTT11=
EXTT12=
PLAYORDER=
